<svg xmlns="http://www.w3.org/2000/svg" viewBox="0 0 2048 560"><defs><style>.cls-1{fill:#e6e6e6;}</style></defs><g id="Logotype"><path class="cls-1" d="M286.22,63.49H86.86L66.67,500.87h229s218.41,19,227.59-218.69S342.76,65.5,286.22,63.49Zm125,217.34C404,376.3,341.78,398.64,317.7,403.73a67.88,67.88,0,0,1-14.14,1.46l-104.84,0,13.82-248.71,91.4,0C329.54,157.62,421.61,146,411.27,280.83Z"/><path class="cls-1" d="M597.9,63.49,577.53,500.87l131.16.36,13.77-344.75h63.78A41.24,41.24,0,0,1,805,160.84c10.06,5.11,21.17,16.1,18.22,39.55C820.86,219,810,230.8,798.89,238.17a69.31,69.31,0,0,1-38.24,11.29H742.26l65.44,88.69s140.34-.29,148.38-149c0,0,12.24-121.11-133.17-125.7Z"/><polygon class="cls-1" points="960.67 63.49 1112.49 500.88 1272.73 500.88 1493.05 63.49 1353.86 63.49 1202.47 391.29 1099.15 63.49 960.67 63.49"/><polygon class="cls-1" points="1526.63 63.58 1503.65 500.96 1647.06 500.96 1669.88 63.58 1526.63 63.58"/><polygon class="cls-1" points="1836.02 63.76 1687.83 271.07 1824.03 501.14 1987.41 501.14 1828.55 271.07 1986.11 63.76 1836.02 63.76"/></g></svg>