<svg xmlns="http://www.w3.org/2000/svg" viewBox="0 0 1080 1080"><defs><style>.cls-1{fill:#1c242f;}.cls-2{fill:#131f2b;}.cls-3{fill:#bc6e21;}.cls-4{fill:#ae5d1e;}.cls-5{fill:#a7551d;}.cls-6{fill:#d89026;}.cls-7{fill:#c37722;}.cls-8{fill:#e6a128;}.cls-9{fill:#283643;}.cls-10{fill:#26343d;}.cls-11{fill:#23303e;}.cls-12{fill:#18212a;}.cls-13{fill:#202a37;}.cls-14{fill:#1d262f;}.cls-15{fill:#1f2732;}.cls-16{fill:#151b27;}</style></defs><g id="test_subject_02" data-name="test subject 02"><circle class="cls-1" cx="536.52" cy="544.46" r="511.53"/><circle class="cls-2" cx="536.52" cy="544.46" r="459.99"/><path class="cls-3" d="M312.56,142.58c-141.23,209.71-65,509.1,35.26,666.76,80.32,126.23,169.32,155.37,169.32,155.37C232.62,914.89,158,647.46,155.52,461c-1.7-129.09,38.21-204.15,38.21-204.15s36.47-54.43,57.84-73.48C274.77,162.66,312.56,142.58,312.56,142.58Z"/><path class="cls-4" d="M312.56,142.58C125.83,321.64,161.79,617.73,326.23,812.12c96.62,114.24,190.91,152.59,190.91,152.59C232.62,914.89,158,647.46,155.52,461c-1.7-129.09,38.21-204.15,38.21-204.15s25.2-43.88,45.86-63.68C266.61,167.23,312.56,142.58,312.56,142.58Z"/><path class="cls-5" d="M856.07,802.37c-9,43.2-23.21,93.9-29.62,99.22-81.4,67.54-247.22,96.18-342.91,13.5C483.54,915.09,717.42,922.21,856.07,802.37Z"/><path class="cls-5" d="M138.73,313.32S81.9,564.54,204.52,771.71c0,0,.77,72.48,10.52,101.74C215,873.45-36.71,647.22,138.73,313.32Z"/><path class="cls-6" d="M770.06,256.11S887.48,258,916,284.48c0,0,212.85,292.6-56,586.93C860.08,871.41,1025.77,515.3,770.06,256.11Z"/><path class="cls-5" d="M810.47,258.24s77-.24,105.57,26.24c0,0,212.85,292.6-56,586.93C877.76,814.2,1056.43,493.71,810.47,258.24Z"/><path class="cls-6" d="M291.12,634s24.62,83.49,61.58,139.12c0,0,234.55,73.34,457.51-77.16l-83-87.9C687,626.09,483.54,674.17,291.12,634Z"/><path class="cls-7" d="M291.12,634s24.62,83.49,61.58,139.12c0,0,163.59,48.07,333.14-14.39,0,0-43.13,5.87-142-43.21-22.17-11-73.69-66.12-73.69-66.12C417,650.86,316,640.72,291.12,634Z"/><path class="cls-8" d="M432.13,251.47c-1.22,1.14,52.72,78.73,64.57,101.72,0,0,150.17-172.76,389.39-107.73,0,0-23.82-40-117.16-98.05C768.93,147.41,577.06,116.76,432.13,251.47Z"/><path class="cls-5" d="M670,147.07c-1.67.22,66,37.4,116.72,83.83a622.28,622.28,0,0,1,99.38,14.56s-23.82-40-117.16-98.05C768.93,147.41,721.06,140.45,670,147.07Z"/><path class="cls-9" d="M517.14,362s42.58,75.33,72.46,108.23c0,0,154.45-106.37,220.87-122.17,0,0-29.65-61.62-77.57-94.76C732.9,253.32,587.51,285.37,517.14,362Z"/><path class="cls-10" d="M600.88,485.42s43.76,62.63,62.93,75.87c0,0,104.86-16,201-94.06,0,0-1.63-40.49-43-104.28C812.25,364.46,771.88,380.31,600.88,485.42Z"/><path class="cls-11" d="M718,569.5,824.18,682.68l61.59-70.76s9.13-73.85-14.21-127.27C871.56,484.65,790.5,550.37,718,569.5Z"/><path class="cls-12" d="M371.51,798.19s80.13,94.06,95.46,99.64c0,0,248,14.63,410.39-140.75,0,0-36.66-17-54.35-45.29C823,711.79,644,853.23,371.51,798.19Z"/><path class="cls-11" d="M835,698.68s29.11,36.1,46.76,41.68c0,0,10.92-93.83,7.9-106.37C889.67,634,845.54,692.06,835,698.68Z"/><path class="cls-9" d="M503.36,371.93S379.64,495.1,354.56,619.82c0,0,151.89,23.22,323.45-18.43C678,601.39,558.79,481.24,503.36,371.93Z"/><path class="cls-13" d="M503.36,371.93S379.64,495.1,354.56,619.82c0,0,151.89,23.22,323.45-18.43C678,601.39,545.47,503.85,503.36,371.93Z"/><path class="cls-14" d="M466.68,412.88s-81.23,80.59-112.12,206.94c0,0,138.58,16.57,240.11-2.63C594.67,617.19,486.94,519.67,466.68,412.88Z"/><path class="cls-14" d="M334.35,614.71l-54.81-11.13S253.3,437.73,413.55,264c0,0,49.24,58.52,65.65,100.64C479.2,364.65,367.1,474,334.35,614.71Z"/><path class="cls-15" d="M259.8,525.52S304.24,336,375.19,275.46c.3,2.06-67.47-49.44-76.81-57.13C295,215.55,224.5,389,259.8,525.52Z"/><path class="cls-13" d="M305.63,205.94l78.77,53.83S502.74,128.53,729.62,126.84C729.62,126.84,504.8,19.73,305.63,205.94Z"/><path class="cls-14" d="M440.94,120.29,606,141.46s52.82-13.79,123.63-14.62C729.62,126.84,595.64,61.48,440.94,120.29Z"/><path class="cls-16" d="M220.32,792.46s8.65,94.39,16.23,100.73c10,8.36,132.64,121.46,329.05,110.35,0,0-64.76-9.77-131.61-38.83C343.09,925.21,231.74,848.67,220.32,792.46Z"/></g></svg>